<?xml version="1.0" encoding="iso-8859-1"?>
<!-- Generator: Adobe Illustrator 19.0.0, SVG Export Plug-In . SVG Version: 6.00 Build 0)  -->
<svg version="1.1" id="Capa_1" xmlns="http://www.w3.org/2000/svg" xmlns:xlink="http://www.w3.org/1999/xlink" x="0px" y="0px"
	 viewBox="0 0 489.3 489.3" style="enable-background:new 0 0 489.3 489.3;" xml:space="preserve">
<g>
	<g>
		<g>
			<path d="M125,408.5c-30.3,0-55.1,18.2-55.1,40.4c0,22.5,24.8,40.4,55.1,40.4h294.3c-24.1-24.1-24.1-56.7,0-80.8L125,408.5
				L125,408.5z"/>
			<path d="M319.9,114.5H217c-5.4,0-9.7,4.3-9.7,9.7c0,5.4,4.3,9.7,9.7,9.7h102.9c5.4,0,9.7-4.3,9.7-9.7
				C330,118.8,325.4,114.5,319.9,114.5z"/>
			<path d="M319.9,163.8H217c-5.4,0-9.7,4.3-9.7,9.7s4.3,9.7,9.7,9.7h102.9c5.4,0,9.7-4.3,9.7-9.7
				C330,168.1,325.4,163.8,319.9,163.8z"/>
			<path d="M319.9,213.1H217c-5.4,0-9.7,4.3-9.7,9.7s4.3,9.7,9.7,9.7h102.9c5.4,0,9.7-4.3,9.7-9.7S325.4,213.1,319.9,213.1z"/>
			<path d="M113.4,1.5C88.5,8.1,69.9,34.2,69.9,65.6v342.1c11.3-9.7,26.4-16.3,43.5-18.2V1.5z"/>
			<path d="M133.2,0v388.6h286.2V0H133.2z M371.6,250.8c0,9.7-7.8,17.5-17.5,17.5H182.9c-9.7,0-17.5-7.8-17.5-17.5V96.7
				c0-9.7,7.8-17.5,17.5-17.5h171.2c9.7,0,17.5,7.8,17.5,17.5V250.8z"/>
		</g>
	</g>
</g>
<g>
</g>
<g>
</g>
<g>
</g>
<g>
</g>
<g>
</g>
<g>
</g>
<g>
</g>
<g>
</g>
<g>
</g>
<g>
</g>
<g>
</g>
<g>
</g>
<g>
</g>
<g>
</g>
<g>
</g>
</svg>
