<?xml version="1.0" encoding="iso-8859-1"?>
<!-- Generator: Adobe Illustrator 19.0.0, SVG Export Plug-In . SVG Version: 6.00 Build 0)  -->
<svg version="1.1" id="Layer_1" xmlns="http://www.w3.org/2000/svg" xmlns:xlink="http://www.w3.org/1999/xlink" x="0px" y="0px"
	 viewBox="0 0 512.001 512.001" style="enable-background:new 0 0 512.001 512.001;" xml:space="preserve">
<g>
	<g>
		<g>
			<path d="M432.959,285.562l0.715-14.753c0.388-7.998-0.766-15.886-3.427-23.428l-0.113-0.324
				c-3.893-11.031-10.812-20.682-20.013-27.908l-64.413-50.589c-4.489-3.506-9.569-6.003-15.107-7.435
				c-2.946-0.905-6.244-1.346-10.045-1.346h-25.613c12.445-9.02,20.562-23.662,20.562-40.173v-17.44
				c0-27.35-22.25-49.599-49.598-49.599h-17.439c-27.348,0-49.599,22.25-49.599,49.599v17.44c0,16.511,8.117,31.153,20.562,40.173
				h-25.612c-3.801,0-7.099,0.441-10.045,1.346c-5.538,1.432-10.619,3.932-15.129,7.453l-63.067,49.408
				c-8.06,6.316-14.468,14.624-18.528,24.016l-1.314,3.043c-3.697,8.569-5.411,18.025-4.959,27.344l0.592,12.208
				c-0.259,0.105-0.522,0.207-0.78,0.314C28.62,306.303,0,336.637,0,370.32c0,33.684,28.62,64.018,80.588,85.414
				c47.134,19.404,109.429,30.091,175.412,30.091s128.28-10.687,175.413-30.091c51.968-21.397,80.587-51.731,80.587-85.414
				C512,336.976,483.938,306.919,432.959,285.562z M233.225,102.166c0-8.405,6.837-15.242,15.242-15.242h17.439
				c8.404,0,15.241,6.837,15.241,15.242v17.44c0,8.404-6.837,15.241-15.241,15.241h-17.439c-8.404,0-15.242-6.837-15.242-15.241
				V102.166z M418.333,423.964c-43.081,17.736-100.732,27.505-162.332,27.505s-119.251-9.768-162.332-27.505
				c-37.139-15.29-59.311-35.344-59.311-53.644c0-16.498,18.028-34.42,48.792-48.993l1.071,22.091
				c0.459,9.475,8.518,16.757,17.989,16.327c9.196-0.447,16.33-8.05,16.325-17.159c0-0.277,0.015-0.552,0.001-0.831l-3.443-71.03
				c-0.199-4.114,0.558-8.288,2.189-12.069l1.303-3.017c1.793-4.152,4.623-7.82,8.182-10.608l63.044-49.39
				c0.783-0.612,1.692-1.044,2.699-1.286c0.262-0.063,0.525-0.132,0.783-0.207c0.126-0.007,0.3-0.011,0.526-0.011h126.737
				c0.226,0,0.4,0.005,0.525,0.011c0.26,0.074,0.521,0.144,0.784,0.207c1.008,0.243,1.916,0.675,2.66,1.256l64.374,50.558
				c4.061,3.191,7.117,7.451,8.809,12.248l0.133,0.377c1.177,3.338,1.687,6.821,1.516,10.352l-3.519,72.608
				c-0.014,0.281,0.002,0.554,0.001,0.831c-0.005,9.109,7.129,16.713,16.325,17.159c0.283,0.014,0.565,0.021,0.845,0.021
				c9.105,0,16.699-7.154,17.144-16.346l1.017-20.975c29.349,14.367,46.473,31.799,46.473,47.878
				C477.643,388.62,455.471,408.674,418.333,423.964z"/>
			<path d="M389.918,152.845c3.249,5.257,8.872,8.147,14.628,8.147c3.082,0,6.204-0.83,9.018-2.569
				c8.069-4.989,10.567-15.576,5.578-23.645c-4.028-6.514-2.126-15.462,1.487-29.424c3.802-14.699,8.535-32.993-1.32-49.622
				c-4.839-8.161-15.376-10.856-23.537-6.018c-8.161,4.838-10.856,15.375-6.019,23.537c2.571,4.337,0.05,14.078-2.386,23.499
				C383.144,113.072,377.889,133.386,389.918,152.845z"/>
			<path d="M447.032,152.845c3.249,5.255,8.872,8.147,14.628,8.147c3.082,0,6.203-0.83,9.018-2.569
				c8.069-4.989,10.567-15.575,5.578-23.645c-4.028-6.514-2.124-15.462,1.487-29.422c3.803-14.7,8.536-32.994-1.32-49.623
				c-4.838-8.161-15.376-10.856-23.537-6.018c-8.161,4.838-10.857,15.375-6.019,23.537c2.571,4.337,0.05,14.078-2.386,23.5
				C440.257,113.072,435.002,133.386,447.032,152.845z"/>
			<path d="M374.967,256.925l-44.785-23.63c-5.324-2.81-11.732-2.626-16.888,0.483c-5.156,3.108-8.308,8.69-8.308,14.711v90.696
				c0,8.544-6.95,15.494-15.495,15.494h-64.611c-8.544,0-15.494-6.95-15.494-15.494v-90.696c0-6.021-3.152-11.602-8.308-14.711
				c-5.155-3.112-11.562-3.291-16.888-0.483l-44.785,23.63c-5.811,3.066-9.365,9.178-9.154,15.744l2.051,63.942
				c0.068,2.119,0.535,4.125,1.298,5.975c2.65,6.429,9.067,10.862,16.423,10.645c6.976-0.223,12.835-4.584,15.329-10.645
				c0.897-2.177,1.37-4.568,1.29-7.074l-1.706-53.21l10.093-5.324v62.21c0,1.144,0.053,2.274,0.129,3.4
				c1.755,25.906,23.378,46.452,49.723,46.452h64.611c26.345,0,47.969-20.544,49.723-46.452c0.077-1.125,0.129-2.256,0.129-3.4
				v-62.21l10.093,5.324l-1.708,53.209c-0.08,2.506,0.393,4.898,1.29,7.075c2.495,6.062,8.353,10.422,15.329,10.645
				c7.37,0.263,13.782-4.198,16.427-10.645c0.759-1.851,1.225-3.857,1.293-5.974l2.051-63.942
				C384.332,266.103,380.779,259.991,374.967,256.925z"/>
			<path d="M69.158,185.349c32.428,0,58.809-26.383,58.809-58.813c0-11.802-3.484-23.166-10.083-32.917L83.906,34.765
				c-3.069-5.315-8.741-8.589-14.878-8.589S57.22,29.45,54.151,34.765L17.931,97.504c-0.35,0.606-0.66,1.229-0.929,1.863
				c-4.361,8.361-6.657,17.712-6.657,27.171C10.346,158.966,36.729,185.349,69.158,185.349z M47.851,114.547
				c0.239-0.424,0.459-0.854,0.659-1.292l20.519-35.541l19.434,33.662c0.242,0.419,0.502,0.829,0.779,1.225
				c2.859,4.106,4.369,8.925,4.369,13.936c0,13.484-10.969,24.455-24.452,24.455c-13.484,0-24.454-10.97-24.454-24.456
				C44.703,122.275,45.763,118.241,47.851,114.547z"/>
		</g>
	</g>
</g>
<g>
</g>
<g>
</g>
<g>
</g>
<g>
</g>
<g>
</g>
<g>
</g>
<g>
</g>
<g>
</g>
<g>
</g>
<g>
</g>
<g>
</g>
<g>
</g>
<g>
</g>
<g>
</g>
<g>
</g>
</svg>
