<?xml version="1.0" encoding="iso-8859-1"?>
<!-- Generator: Adobe Illustrator 19.0.0, SVG Export Plug-In . SVG Version: 6.00 Build 0)  -->
<svg version="1.1" id="Layer_1" xmlns="http://www.w3.org/2000/svg" xmlns:xlink="http://www.w3.org/1999/xlink" x="0px" y="0px"
	 viewBox="0 0 503.607 503.607" style="enable-background:new 0 0 503.607 503.607;" xml:space="preserve">
<g transform="translate(1 1)">
	<g>
		<path d="M494.213,175.164h-33.574v-59.472c23.738-4.028,41.967-24.804,41.967-49.643c0-5.036-3.357-8.393-8.393-8.393h-83.934
			h-83.934c-5.036,0-8.393,3.357-8.393,8.393c0,24.839,18.229,45.615,41.967,49.643v59.472h-78.96
			c17.5-12.329,28.599-30.353,28.599-50.361c0-5.036-3.357-8.393-8.393-8.393h-8.777c-0.416-24.77-14.422-48.9-43.135-72.389
			c-6.479-9.488-12.985-15.86-20.272-19.099c-4.197-1.679-9.233,0-10.911,4.197s0,9.233,4.197,10.911
			c4.197,1.679,8.393,6.715,12.59,13.43c0.257,0.385,0.562,0.742,0.888,1.085c5.212,26.062,9.068,45.503,6.888,61.866h-17.009
			c0-15.841-11.123-29.202-25.942-32.682c-0.767-3.226-2.25-6.902-5.113-10.124c-2.518-3.357-8.393-7.554-19.305-7.554
			c-5.036,0-8.393,3.357-8.393,8.393s3.357,8.393,8.393,8.393c2.208,0,5.06,0.001,6.296,1.698
			c-13.367,4.433-23.083,17.071-23.083,31.875h-8.393c-5.036,0-8.393,3.357-8.393,8.393c0,20.007,11.1,38.031,28.599,50.361H134.05
			l-25.936-86.452c-1.679-3.357-5.036-5.875-8.393-5.875H54.708c-5.921-5.214-13.672-8.393-22.134-8.393
			C14.108,74.443-1,89.551-1,108.017s15.108,33.574,33.574,33.574c8.462,0,16.213-3.179,22.134-8.393h13.958l14.269,52.879v190.531
			c0,5.036,3.357,8.393,8.393,8.393h25.18v17.02c-18.98,2.065-33.574,17.974-33.574,37.537c0,20.984,16.787,37.771,37.771,37.771
			c20.984,0,37.77-16.787,37.77-37.771c0-7.788-2.316-14.995-6.298-20.984h281.185c-3.981,5.988-6.298,13.195-6.298,20.984
			c0,20.984,16.787,37.771,37.771,37.771s37.771-16.787,37.771-37.771c0-19.563-14.594-35.473-33.574-37.537V385h25.18
			c5.036,0,8.393-3.357,8.393-8.393V183.558C502.607,178.522,499.249,175.164,494.213,175.164z M484.98,74.443
			c-4.197,14.269-16.787,25.18-32.734,25.18c-15.948,0-29.377-10.911-32.734-25.18H484.98z M335.577,74.443h65.469
			c-4.197,14.269-16.787,25.18-32.734,25.18S338.934,88.712,335.577,74.443z M376.705,115.692
			c13.961-2.369,26.013-10.527,33.574-21.906c7.561,11.378,19.612,19.537,33.574,21.906v59.472h-67.148V115.692z M255.839,73.604
			c13.43,14.269,20.144,28.538,20.144,42.807h-16.787C260.875,103.82,259.197,89.551,255.839,73.604z M192.049,99.623
			c9.233,0,16.787,7.554,16.787,16.787h-33.574C175.262,107.177,182.816,99.623,192.049,99.623z M159.315,133.197h9.233h47.003
			h34.413h34.413h7.554c-5.036,23.502-32.734,41.967-66.308,41.967C192.049,175.164,164.351,156.699,159.315,133.197z
			 M15.787,108.017c0-9.233,7.554-16.787,16.787-16.787c4.534,0,8.657,1.829,11.685,4.776c0.257,0.381,0.554,0.749,0.905,1.099
			c1.362,1.362,3.275,4.38,3.949,8.16c0.012,0.069,0.021,0.139,0.032,0.209c0.061,0.371,0.108,0.75,0.143,1.135
			c0.039,0.466,0.072,0.933,0.072,1.408s-0.032,0.943-0.072,1.408c-0.035,0.384-0.082,0.763-0.143,1.135
			c-0.011,0.07-0.021,0.14-0.032,0.209c-0.674,3.779-2.588,6.798-3.949,8.16c-0.35,0.35-0.647,0.719-0.905,1.099
			c-3.029,2.948-7.151,4.776-11.685,4.776C23.341,124.804,15.787,117.249,15.787,108.017z M75.38,116.41H65.308
			c0.839-2.518,0.839-5.875,0.839-8.393c0-2.518,0-5.875-0.839-8.393h28.538l22.662,75.541H98.043l-14.269-52.879
			C82.095,118.928,79.577,116.41,75.38,116.41z M120.705,460.541c-11.751,0-20.984-9.233-20.984-20.984
			c0-11.751,9.233-20.984,20.984-20.984c11.751,0,20.984,9.233,20.984,20.984C141.689,451.309,132.456,460.541,120.705,460.541z
			 M485.82,439.558c0,11.751-9.233,20.984-20.984,20.984s-20.984-9.233-20.984-20.984c0-11.751,9.233-20.984,20.984-20.984
			S485.82,427.807,485.82,439.558z M452.246,401.787H133.295V385h318.951V401.787z M485.82,368.213h-25.18h-16.787v-8.393
			c0-5.036-3.357-8.393-8.393-8.393c-5.036,0-8.393,3.357-8.393,8.393v8.393h-16.787v-50.361c0-5.036-3.357-8.393-8.393-8.393
			c-5.036,0-8.393,3.357-8.393,8.393v50.361h-16.787v-16.787c0-5.036-3.357-8.393-8.393-8.393s-8.393,3.357-8.393,8.393v16.787
			H234.016v-25.18c0-5.036-3.357-8.393-8.393-8.393c-5.036,0-8.393,3.357-8.393,8.393v25.18h-16.787v-16.787
			c0-5.036-3.357-8.393-8.393-8.393s-8.393,3.357-8.393,8.393v16.787h-16.787v-50.361c0-5.036-3.357-8.393-8.393-8.393
			s-8.393,3.357-8.393,8.393v50.361h-16.787v-8.393c0-5.036-3.357-8.393-8.393-8.393s-8.393,3.357-8.393,8.393v8.393H99.721V191.951
			h27.698h358.4V368.213z"/>
	</g>
</g>
<g>
</g>
<g>
</g>
<g>
</g>
<g>
</g>
<g>
</g>
<g>
</g>
<g>
</g>
<g>
</g>
<g>
</g>
<g>
</g>
<g>
</g>
<g>
</g>
<g>
</g>
<g>
</g>
<g>
</g>
</svg>
