<?xml version="1.0" encoding="iso-8859-1"?>
<!-- Generator: Adobe Illustrator 19.0.0, SVG Export Plug-In . SVG Version: 6.00 Build 0)  -->
<svg version="1.1" id="Layer_1" xmlns="http://www.w3.org/2000/svg" xmlns:xlink="http://www.w3.org/1999/xlink" x="0px" y="0px"
	 viewBox="0 0 503.607 503.607" style="enable-background:new 0 0 503.607 503.607;" xml:space="preserve">
<g>
	<g>
		<path d="M495.213,176.263h-33.574v-59.51c23.779-4.02,41.967-24.702,41.967-49.605c0-4.642-3.752-8.393-8.393-8.393h-83.934
			h-83.934c-4.642,0-8.393,3.752-8.393,8.393c0,24.903,18.189,45.585,41.967,49.605v59.51h-78.965
			c17.492-12.313,28.605-30.3,28.605-50.361c0-4.642-3.752-8.393-8.393-8.393h-8.503c-0.436-25.029-14.865-48.925-43.898-72.721
			c-5.8-9.367-12.271-15.629-19.783-18.91c-4.272-1.847-9.199,0.101-11.054,4.339c-1.855,4.247,0.092,9.191,4.339,11.054
			c4.281,1.863,8.293,5.951,12.221,12.296l0.436,2.124c5.372,25.911,9.417,45.476,7.327,61.818h-16.627
			c0-15.83-11.046-29.058-25.81-32.575c-0.722-3.198-2.132-6.799-4.977-10.03c-3.131-3.534-9.057-7.755-19.573-7.755
			c-4.642,0-8.393,3.752-8.393,8.393c0,4.642,3.752,8.393,8.393,8.393c2.165,0,4.952,0.353,6.572,1.763
			c-13.505,4.348-23.359,16.879-23.359,31.811h-8.393c-4.642,0-8.393,3.752-8.393,8.393c0,20.06,11.113,38.047,28.605,50.361
			h-36.369l-26.171-86.369c-1.074-3.542-4.339-5.959-8.033-5.959H55.548c-5.901-5.162-13.53-8.393-21.974-8.393
			C15.058,75.541,0,90.599,0,109.115s15.058,33.574,33.574,33.574c8.444,0,16.073-3.232,21.974-8.393h14.344l14.042,51.485v191.924
			c0,4.642,3.752,8.393,8.393,8.393h25.18v17.215c-18.835,2.115-33.574,17.954-33.574,37.342c0,20.824,16.946,37.771,37.771,37.771
			c20.824,0,37.771-16.946,37.771-37.771c0-7.764-2.367-14.974-6.396-20.984h281.382c-4.029,6.01-6.396,13.22-6.396,20.984
			c0,20.824,16.946,37.771,37.771,37.771c20.824,0,37.771-16.946,37.771-37.771c0-19.389-14.739-35.227-33.574-37.342v-17.215h25.18
			c4.642,0,8.393-3.752,8.393-8.393V184.656C503.607,180.015,499.855,176.263,495.213,176.263z M98.74,176.263l-14.336-52.568
			c-0.999-3.651-4.314-6.186-8.1-6.186H66.056c0.076-0.294,0.109-0.596,0.176-0.89c0.126-0.546,0.227-1.083,0.319-1.637
			c0.353-1.931,0.596-3.886,0.596-5.867c0-1.981-0.243-3.937-0.596-5.867c-0.092-0.554-0.193-1.091-0.319-1.637
			c-0.067-0.294-0.101-0.596-0.176-0.89h28.437l22.889,75.541H98.74z M411.279,94.93c7.546,11.365,19.59,19.456,33.574,21.823v59.51
			h-67.148v-59.51C391.688,114.386,403.733,106.295,411.279,94.93z M444.852,360.918v8.393h-16.787v-8.393
			c0-4.642,3.752-8.393,8.393-8.393C441.101,352.525,444.852,356.277,444.852,360.918z M411.279,318.951v50.361h-16.787v-50.361
			c0-4.642,3.752-8.393,8.393-8.393C407.527,310.558,411.279,314.31,411.279,318.951z M336.804,75.541h65.016
			c-3.727,14.47-16.896,25.18-32.508,25.18S340.53,90.012,336.804,75.541z M360.918,352.525c0-4.642,3.752-8.393,8.393-8.393
			c4.642,0,8.393,3.752,8.393,8.393v16.787h-16.787V352.525z M276.933,117.509h-16.762c1.326-12.976-0.361-26.867-3.391-43.193
			C269.883,88.845,276.539,103.131,276.933,117.509z M193.049,100.722c9.258,0,16.787,7.529,16.787,16.787h-33.574
			C176.262,108.251,183.791,100.722,193.049,100.722z M160.407,134.295h9.006h47.272h33.549h34.69h7.915
			c-5.347,23.787-33.003,41.967-66.216,41.967C193.41,176.263,165.754,158.082,160.407,134.295z M235.016,344.132v25.18H218.23
			v-25.18c0-4.642,3.752-8.393,8.393-8.393C231.264,335.738,235.016,339.49,235.016,344.132z M201.443,352.525v16.787h-16.787
			v-16.787c0-4.642,3.752-8.393,8.393-8.393S201.443,347.883,201.443,352.525z M151.082,318.951c0-4.642,3.752-8.393,8.393-8.393
			c4.642,0,8.393,3.752,8.393,8.393v50.361h-16.787V318.951z M453.246,402.886H134.295v-16.787h16.787h16.787h16.787h16.787h16.787
			h16.787h125.902h16.787h16.787h16.787h16.787h16.787h8.393V402.886z M420.738,75.541h65.016
			c-3.727,14.47-16.896,25.18-32.508,25.18S424.465,90.012,420.738,75.541z"/>
	</g>
</g>
<g>
</g>
<g>
</g>
<g>
</g>
<g>
</g>
<g>
</g>
<g>
</g>
<g>
</g>
<g>
</g>
<g>
</g>
<g>
</g>
<g>
</g>
<g>
</g>
<g>
</g>
<g>
</g>
<g>
</g>
</svg>
