<?xml version="1.0" encoding="iso-8859-1"?>
<!-- Generator: Adobe Illustrator 19.0.0, SVG Export Plug-In . SVG Version: 6.00 Build 0)  -->
<svg version="1.1" id="Layer_1" xmlns="http://www.w3.org/2000/svg" xmlns:xlink="http://www.w3.org/1999/xlink" x="0px" y="0px"
	 viewBox="0 0 512 512" style="enable-background:new 0 0 512 512;" xml:space="preserve">
<g>
	<g>
		<path d="M509.662,423.767l-13.518-13.52c-0.003-0.003-0.006-0.007-0.01-0.011L88.233,2.341c-3.117-3.116-8.171-3.116-11.288,0
			L2.338,76.948C0.841,78.445,0,80.475,0,82.592c0,2.117,0.841,4.146,2.338,5.645l407.903,407.895l-0.001,0.001l13.526,13.526
			c1.559,1.558,3.601,2.337,5.645,2.337c2.042,0,4.086-0.779,5.643-2.337l74.607-74.605
			C512.779,431.938,512.779,426.884,509.662,423.767z M415.884,479.202L19.268,82.592l63.32-63.32l10.834,10.834L56.831,66.696
			l11.287,11.289l36.593-36.593l19.017,19.017L98.557,85.581l11.287,11.286l25.17-25.171l19.017,19.017l-36.593,36.592
			l11.287,11.288L165.318,102l19.017,19.017l-25.171,25.17l11.287,11.288l25.172-25.171l19.017,19.016l-36.592,36.592l11.288,11.288
			l36.592-36.593l19.017,19.017l-25.17,25.169l11.287,11.288l25.171-25.169l19.016,19.015L238.66,248.52l11.288,11.288
			l36.592-36.592l19.016,19.016l-25.169,25.17l11.288,11.288l25.169-25.17l19.016,19.015l-36.592,36.592l11.288,11.288
			l36.592-36.592l19.016,19.016l-25.17,25.169l11.288,11.288l25.17-25.169l19.016,19.015l-36.592,36.592l11.288,11.288
			l36.592-36.592l19.016,19.016l-25.17,25.17l11.288,11.288l25.17-25.17l19.015,19.016l-36.591,36.591l11.289,11.288l36.592-36.591
			l10.835,10.835L415.884,479.202z M429.41,492.728l-2.239-2.238l63.319-63.319l2.239,2.239L429.41,492.728z"/>
	</g>
</g>
<g>
</g>
<g>
</g>
<g>
</g>
<g>
</g>
<g>
</g>
<g>
</g>
<g>
</g>
<g>
</g>
<g>
</g>
<g>
</g>
<g>
</g>
<g>
</g>
<g>
</g>
<g>
</g>
<g>
</g>
</svg>
