<?xml version='1.0' encoding='iso-8859-1'?>
<svg version="1.1" xmlns="http://www.w3.org/2000/svg" viewBox="0 0 231 231" xmlns:xlink="http://www.w3.org/1999/xlink" enable-background="new 0 0 231 231">
  <g>
    <path d="m221.333,8h-211c-5.522,0-10.333,3.977-10.333,9.5v178c0,5.523 4.811,10.5 10.333,10.5h6.667v6.5c0,5.5 4.833,10.5 10.333,10.5h13c5.5,0 9.667-5 9.667-10.5v-6.5h132v6.5c0,5.5 4.833,10.5 10.333,10.5h13c5.5,0 9.667-5 9.667-10.5v-6.5h6.333c5.523,0 9.667-4.977 9.667-10.5v-178c0-5.523-4.145-9.5-9.667-9.5zm-30.75,57.25c4.557,0 8.25,3.693 8.25,8.25s-3.693,8.25-8.25,8.25c-4.557,0-8.25-3.693-8.25-8.25s3.693-8.25 8.25-8.25zm0,33c4.557,0 8.25,3.693 8.25,8.25s-3.693,8.25-8.25,8.25c-4.557,0-8.25-3.693-8.25-8.25s3.693-8.25 8.25-8.25zm0,33c4.557,0 8.25,3.693 8.25,8.25s-3.693,8.25-8.25,8.25c-4.557,0-8.25-3.693-8.25-8.25s3.693-8.25 8.25-8.25zm-123.75,8.25c-18.226,0-33-14.774-33-33s14.774-33 33-33 33,14.774 33,33-14.774,33-33,33zm57.75,8.25c-4.557,0-8.25-3.693-8.25-8.25s3.693-8.25 8.25-8.25 8.25,3.693 8.25,8.25-3.693,8.25-8.25,8.25zm0-33c-4.557,0-8.25-3.693-8.25-8.25s3.693-8.25 8.25-8.25 8.25,3.693 8.25,8.25-3.693,8.25-8.25,8.25zm0-33c-4.557,0-8.25-3.693-8.25-8.25s3.693-8.25 8.25-8.25 8.25,3.693 8.25,8.25-3.693,8.25-8.25,8.25zm33,66c-4.557,0-8.25-3.693-8.25-8.25s3.693-8.25 8.25-8.25c4.557,0 8.25,3.693 8.25,8.25s-3.693,8.25-8.25,8.25zm0-33c-4.557,0-8.25-3.693-8.25-8.25s3.693-8.25 8.25-8.25c4.557,0 8.25,3.693 8.25,8.25s-3.693,8.25-8.25,8.25zm0-33c-4.557,0-8.25-3.693-8.25-8.25s3.693-8.25 8.25-8.25c4.557,0 8.25,3.693 8.25,8.25s-3.693,8.25-8.25,8.25z"/>
    <circle cx="66.833" cy="106.5" r="8.25"/>
  </g>
</svg>
