<?xml version="1.0" encoding="iso-8859-1"?>
<!-- Generator: Adobe Illustrator 19.0.0, SVG Export Plug-In . SVG Version: 6.00 Build 0)  -->
<svg version="1.1" id="Layer_1" xmlns="http://www.w3.org/2000/svg" xmlns:xlink="http://www.w3.org/1999/xlink" x="0px" y="0px"
	 viewBox="0 0 512 512" style="enable-background:new 0 0 512 512;" xml:space="preserve">
<g>
	<g>
		<path d="M256,0C114.615,0,0,114.615,0,256s114.615,256,256,256s256-114.616,256-256S397.385,0,256,0z M443.696,177.459
			l10.319,31.756l-55.926,18.172l-10.319-31.756L443.696,177.459z M239.304,53.22h33.391v58.803h-33.391V53.22z M239.304,233.104
			v-88.763h33.391v88.763c16.327,6.622,27.877,22.642,27.877,41.317c0,24.578-19.996,44.573-44.573,44.573
			c-24.577,0-44.573-19.996-44.573-44.573C211.427,255.745,222.977,239.725,239.304,233.104z M68.304,334.541l-10.319-31.756
			l55.926-18.172l10.319,31.756L68.304,334.541z M113.911,227.387l-55.926-18.172l10.319-31.756l55.926,18.172L113.911,227.387z
			 M123.302,101.761l27.015-19.627l34.563,47.574l-27.015,19.627L123.302,101.761z M164.39,449.119V342.282h183.219v106.837H164.39z
			 M327.12,129.707l34.563-47.574l27.015,19.627l-34.563,47.574L327.12,129.707z M443.696,334.541l-55.926-18.172l10.319-31.756
			l55.926,18.172L443.696,334.541z"/>
	</g>
</g>
<g>
	<g>
		<path d="M256,263.238c-6.166,0-11.182,5.016-11.182,11.182c0,6.165,5.015,11.183,11.182,11.183
			c6.166,0,11.182-5.017,11.182-11.182C267.182,268.256,262.166,263.238,256,263.238z"/>
	</g>
</g>
<g>
</g>
<g>
</g>
<g>
</g>
<g>
</g>
<g>
</g>
<g>
</g>
<g>
</g>
<g>
</g>
<g>
</g>
<g>
</g>
<g>
</g>
<g>
</g>
<g>
</g>
<g>
</g>
<g>
</g>
</svg>
