<?xml version="1.0" encoding="iso-8859-1"?>
<!-- Generator: Adobe Illustrator 19.0.0, SVG Export Plug-In . SVG Version: 6.00 Build 0)  -->
<svg version="1.1" id="Layer_1" xmlns="http://www.w3.org/2000/svg" xmlns:xlink="http://www.w3.org/1999/xlink" x="0px" y="0px"
	 viewBox="0 0 512 512" style="enable-background:new 0 0 512 512;" xml:space="preserve">
<g>
	<g>
		<g>
			<path d="M149.333,0C66.853,0,0,66.853,0,149.333c0,29.584,18.937,88.176,52.362,171.394c4.237,10.548,8.668,21.381,13.272,32.46
				c14.082,33.884,29.156,68.587,44.23,102.242c5.275,11.778,10.175,22.586,14.574,32.19c2.645,5.774,4.539,9.872,5.559,12.059
				c7.651,16.418,30.99,16.433,38.662,0.024c1.02-2.181,2.914-6.267,5.56-12.025c4.4-9.576,9.3-20.355,14.576-32.104
				c15.075-33.57,30.152-68.203,44.235-102.041c4.696-11.283,9.211-22.312,13.524-33.048
				c33.261-82.795,52.114-141.304,52.114-171.152C298.667,66.853,231.814,0,149.333,0z M206.962,304.58
				c-4.245,10.567-8.694,21.434-13.324,32.559c-13.917,33.439-28.841,67.722-43.765,100.956c-0.171,0.38-0.341,0.76-0.511,1.138
				c-0.185-0.414-0.372-0.829-0.558-1.245c-14.926-33.325-29.851-67.684-43.77-101.175c-4.541-10.926-8.908-21.603-13.079-31.988
				c-30.927-76.999-49.288-133.807-49.288-155.491c0-58.917,47.75-106.667,106.667-106.667C208.25,42.667,256,90.417,256,149.333
				C256,171.303,237.752,227.937,206.962,304.58z"/>
			<path d="M149.333,85.333c-35.355,0-64,28.645-64,64s28.645,64,64,64s64-28.645,64-64S184.689,85.333,149.333,85.333z
				 M149.333,170.667c-11.791,0-21.333-9.542-21.333-21.333S137.542,128,149.333,128s21.333,9.542,21.333,21.333
				S161.125,170.667,149.333,170.667z"/>
			<path d="M490.667,256c-11.782,0-21.333,9.551-21.333,21.333v85.333h-128v-85.333c0-11.782-9.551-21.333-21.333-21.333
				s-21.333,9.551-21.333,21.333v213.333c0,11.782,9.551,21.333,21.333,21.333s21.333-9.551,21.333-21.333v-85.333h128v85.333
				c0,11.782,9.551,21.333,21.333,21.333S512,502.449,512,490.667V277.333C512,265.551,502.449,256,490.667,256z"/>
		</g>
	</g>
</g>
<g>
</g>
<g>
</g>
<g>
</g>
<g>
</g>
<g>
</g>
<g>
</g>
<g>
</g>
<g>
</g>
<g>
</g>
<g>
</g>
<g>
</g>
<g>
</g>
<g>
</g>
<g>
</g>
<g>
</g>
</svg>
